<?xml version="1.0" encoding="UTF-8" standalone="no"?>
<!-- Uploaded to: SVG Repo, www.svgrepo.com, Transformed by: SVG Repo Mixer Tools -->

<svg
   width="800px"
   height="800px"
   viewBox="0 0 24 24"
   fill="none"
   version="1.1"
   id="svg1"
   sodipodi:docname="battery-exclamation.svg"
   inkscape:version="1.3.2 (091e20ef0f, 2023-11-25, custom)"
   xmlns:inkscape="http://www.inkscape.org/namespaces/inkscape"
   xmlns:sodipodi="http://sodipodi.sourceforge.net/DTD/sodipodi-0.dtd"
   xmlns="http://www.w3.org/2000/svg"
   xmlns:svg="http://www.w3.org/2000/svg">
  <defs
     id="defs1" />
  <sodipodi:namedview
     id="namedview1"
     pagecolor="#505050"
     bordercolor="#ffffff"
     borderopacity="1"
     inkscape:showpageshadow="0"
     inkscape:pageopacity="0"
     inkscape:pagecheckerboard="1"
     inkscape:deskcolor="#505050"
     inkscape:zoom="1.3788582"
     inkscape:cx="448.92215"
     inkscape:cy="475.39333"
     inkscape:window-width="2560"
     inkscape:window-height="1378"
     inkscape:window-x="0"
     inkscape:window-y="26"
     inkscape:window-maximized="1"
     inkscape:current-layer="svg1" />
  <g
     id="SVGRepo_bgCarrier"
     stroke-width="0"
     style="stroke:#c6d0f5;stroke-opacity:1" />
  <g
     id="SVGRepo_tracerCarrier"
     stroke-linecap="round"
     stroke-linejoin="round"
     style="stroke:#c6d0f5;stroke-opacity:1" />
  <g
     id="SVGRepo_iconCarrier"
     style="stroke:#c6d0f5;stroke-opacity:1">
    <path
       d="M7.5 6H6.2C5.0799 6 4.51984 6 4.09202 6.21799C3.71569 6.40973 3.40973 6.71569 3.21799 7.09202C3 7.51984 3 8.0799 3 9.2V14.8C3 15.9201 3 16.4802 3.21799 16.908C3.40973 17.2843 3.71569 17.5903 4.09202 17.782C4.51984 18 5.0799 18 6.2 18H7.5M15.5 6H16.8C17.9201 6 18.4802 6 18.908 6.21799C19.2843 6.40973 19.5903 6.71569 19.782 7.09202C20 7.51984 20 8.0799 20 9.2V14.8C20 15.9201 20 16.4802 19.782 16.908C19.5903 17.2843 19.2843 17.5903 18.908 17.782C18.4802 18 17.9201 18 16.8 18H15.5M11.5 6V15M11.5 18H11.51M21 13V11"
       stroke="#232634"
       stroke-width="2"
       stroke-linecap="round"
       stroke-linejoin="round"
       id="path1"
       style="stroke:#c6d0f5;stroke-opacity:1" />
  </g>
</svg>
