<?xml version="1.0" encoding="UTF-8" standalone="no"?>
<!-- Uploaded to: SVG Repo, www.svgrepo.com, Transformed by: SVG Repo Mixer Tools -->

<svg
   fill="#232634"
   width="800px"
   height="800px"
   viewBox="0 0 96 96"
   version="1.1"
   id="svg2"
   sodipodi:docname="off.svg"
   inkscape:version="1.3.2 (091e20ef0f, 2023-11-25, custom)"
   xmlns:inkscape="http://www.inkscape.org/namespaces/inkscape"
   xmlns:sodipodi="http://sodipodi.sourceforge.net/DTD/sodipodi-0.dtd"
   xmlns="http://www.w3.org/2000/svg"
   xmlns:svg="http://www.w3.org/2000/svg">
  <defs
     id="defs2" />
  <sodipodi:namedview
     id="namedview2"
     pagecolor="#505050"
     bordercolor="#ffffff"
     borderopacity="1"
     inkscape:showpageshadow="0"
     inkscape:pageopacity="0"
     inkscape:pagecheckerboard="1"
     inkscape:deskcolor="#505050"
     inkscape:zoom="0.975"
     inkscape:cx="356.92308"
     inkscape:cy="467.17949"
     inkscape:window-width="2560"
     inkscape:window-height="1378"
     inkscape:window-x="0"
     inkscape:window-y="26"
     inkscape:window-maximized="1"
     inkscape:current-layer="svg2" />
  <g
     id="SVGRepo_bgCarrier"
     stroke-width="0"
     style="fill:#c6d0f5;fill-opacity:1" />
  <g
     id="SVGRepo_tracerCarrier"
     stroke-linecap="round"
     stroke-linejoin="round"
     style="fill:#c6d0f5;fill-opacity:1" />
  <g
     id="SVGRepo_iconCarrier"
     style="fill:#c6d0f5;fill-opacity:1">
    <title
       id="title1" />
    <g
       id="g2"
       style="fill:#c6d0f5;fill-opacity:1">
      <path
         d="M48,36a5.9966,5.9966,0,0,0,6-6V6A6,6,0,0,0,42,6V30A5.9966,5.9966,0,0,0,48,36Z"
         id="path1"
         style="fill:#c6d0f5;fill-opacity:1" />
      <path
         d="M76.0078,22.9746a6,6,0,0,0-8.0156,8.93A29.39,29.39,0,0,1,78,54a30,30,0,0,1-60,0A29.39,29.39,0,0,1,28.0078,31.9043a6,6,0,0,0-8.0156-8.93,42.0009,42.0009,0,1,0,56.0156,0Z"
         id="path2"
         style="fill:#c6d0f5;fill-opacity:1" />
    </g>
  </g>
</svg>
