<?xml version="1.0" encoding="UTF-8" standalone="no"?>
<!-- Uploaded to: SVG Repo, www.svgrepo.com, Transformed by: SVG Repo Mixer Tools -->

<svg
   fill="#232634"
   height="800px"
   width="800px"
   version="1.1"
   id="Capa_1"
   viewBox="0 0 202.748 202.748"
   xml:space="preserve"
   sodipodi:docname="sleep.svg"
   inkscape:version="1.3.2 (091e20ef0f, 2023-11-25, custom)"
   xmlns:inkscape="http://www.inkscape.org/namespaces/inkscape"
   xmlns:sodipodi="http://sodipodi.sourceforge.net/DTD/sodipodi-0.dtd"
   xmlns="http://www.w3.org/2000/svg"
   xmlns:svg="http://www.w3.org/2000/svg"><defs
   id="defs1" /><sodipodi:namedview
   id="namedview1"
   pagecolor="#505050"
   bordercolor="#ffffff"
   borderopacity="1"
   inkscape:showpageshadow="0"
   inkscape:pageopacity="0"
   inkscape:pagecheckerboard="1"
   inkscape:deskcolor="#505050"
   inkscape:zoom="0.975"
   inkscape:cx="418.46154"
   inkscape:cy="447.69231"
   inkscape:window-width="2560"
   inkscape:window-height="1378"
   inkscape:window-x="0"
   inkscape:window-y="26"
   inkscape:window-maximized="1"
   inkscape:current-layer="Capa_1" />

<g
   id="SVGRepo_bgCarrier"
   stroke-width="0"
   style="fill:#c6d0f5;fill-opacity:1" />

<g
   id="SVGRepo_tracerCarrier"
   stroke-linecap="round"
   stroke-linejoin="round"
   style="fill:#c6d0f5;fill-opacity:1" />

<g
   id="SVGRepo_iconCarrier"
   style="fill:#c6d0f5;fill-opacity:1"> <path
   d="M199.876,119.867c-2.405-1.886-5.715-2.124-8.366-0.6c-12.57,7.225-25.856,10.889-39.489,10.889 c-43.804,0-79.44-35.638-79.44-79.443c0-13.693,3.669-26.961,10.906-39.434c1.537-2.648,1.309-5.965-0.576-8.379 c-1.884-2.414-5.047-3.441-7.989-2.591c-21.161,6.1-40.207,19.042-53.629,36.441C7.363,54.809,0,76.437,0,99.297 c0,57.035,46.4,103.438,103.434,103.438c22.86,0,44.493-7.36,62.561-21.286c17.411-13.419,30.359-32.454,36.459-53.6 C203.302,124.911,202.282,121.754,199.876,119.867z M103.434,187.734C54.671,187.734,15,148.061,15,99.297 c0-32.898,18.825-62.836,47.436-77.882c-3.228,9.485-4.855,19.284-4.855,29.298c0,52.076,42.366,94.443,94.44,94.443 c10,0,19.816-1.634,29.347-4.873C166.324,168.9,136.36,187.734,103.434,187.734z"
   id="path1"
   style="fill:#c6d0f5;fill-opacity:1" /> </g>

</svg>
