<?xml version="1.0" encoding="UTF-8" standalone="no"?>
<!-- Uploaded to: SVG Repo, www.svgrepo.com, Transformed by: SVG Repo Mixer Tools -->

<svg
   width="800px"
   height="800px"
   viewBox="0 0 24 24"
   version="1.1"
   fill="#232634"
   id="svg1"
   sodipodi:docname="storage.svg"
   inkscape:version="1.3.2 (091e20ef0f, 2023-11-25, custom)"
   xmlns:inkscape="http://www.inkscape.org/namespaces/inkscape"
   xmlns:sodipodi="http://sodipodi.sourceforge.net/DTD/sodipodi-0.dtd"
   xmlns="http://www.w3.org/2000/svg"
   xmlns:svg="http://www.w3.org/2000/svg">
  <defs
     id="defs1" />
  <sodipodi:namedview
     id="namedview1"
     pagecolor="#505050"
     bordercolor="#ffffff"
     borderopacity="1"
     inkscape:showpageshadow="0"
     inkscape:pageopacity="0"
     inkscape:pagecheckerboard="1"
     inkscape:deskcolor="#505050"
     inkscape:zoom="0.975"
     inkscape:cx="355.89744"
     inkscape:cy="357.4359"
     inkscape:window-width="2560"
     inkscape:window-height="1378"
     inkscape:window-x="0"
     inkscape:window-y="26"
     inkscape:window-maximized="1"
     inkscape:current-layer="svg1" />
  <g
     id="SVGRepo_bgCarrier"
     stroke-width="0"
     style="fill:#c6d0f5;fill-opacity:1" />
  <g
     id="SVGRepo_tracerCarrier"
     stroke-linecap="round"
     stroke-linejoin="round"
     style="fill:#c6d0f5;fill-opacity:1" />
  <g
     id="SVGRepo_iconCarrier"
     style="fill:#c6d0f5;fill-opacity:1">
    <!-- Uploaded to: SVG Repo, www.svgrepo.com, Transformed by: SVG Repo Mixer Tools -->
    <title
       id="title1">ic_fluent_storage_24_regular</title>
    <desc
       id="desc1">Created with Sketch.</desc>
    <g
       id="ðŸ”-Product-Icons"
       stroke="none"
       stroke-width="1"
       fill="none"
       fill-rule="evenodd"
       style="fill:#c6d0f5;fill-opacity:1">
      <g
         id="ic_fluent_storage_24_regular"
         fill="#232634"
         fill-rule="nonzero"
         style="fill:#c6d0f5;fill-opacity:1">
        <path
           d="M5,7 L19,7 C20.597725,7 21.903664,8.24892392 21.9949075,9.82372764 L22,10 L22,14 C22,15.597725 20.7511226,16.903664 19.1762773,16.9949075 L19,17 L5,17 C3.40232321,17 2.09633941,15.7511226 2.00509271,14.1762773 L2,14 L2,10 C2,8.40232321 3.24892392,7.09633941 4.82372764,7.00509271 L5,7 L19,7 L5,7 Z M19,8.5 L5,8.5 C4.17157,8.5 3.5,9.1716 3.5,10 L3.5,14 C3.5,14.8284 4.17157,15.5 5,15.5 L19,15.5 C19.8284,15.5 20.5,14.8284 20.5,14 L20.5,10 C20.5,9.1716 19.8284,8.5 19,8.5 Z M18,10 C18.5523,10 19,10.4477 19,11 C19,11.5523 18.5523,12 18,12 C17.4477,12 17,11.5523 17,11 C17,10.4477 17.4477,10 18,10 Z M14,10 C14.5523,10 15,10.4477 15,11 C15,11.5523 14.5523,12 14,12 C13.4477,12 13,11.5523 13,11 C13,10.4477 13.4477,10 14,10 Z"
           id="ðŸŽ¨-Color"
           style="fill:#c6d0f5;fill-opacity:1" />
      </g>
    </g>
  </g>
</svg>
