<?xml version="1.0" encoding="UTF-8" standalone="no"?>
<!-- Uploaded to: SVG Repo, www.svgrepo.com, Transformed by: SVG Repo Mixer Tools -->

<svg
   fill="#232634"
   width="800px"
   height="800px"
   viewBox="0 0 1069 1069"
   style="fill-rule:evenodd;clip-rule:evenodd;stroke-linejoin:round;stroke-miterlimit:2;"
   version="1.1"
   xml:space="preserve"
   id="svg2"
   sodipodi:docname="ram.svg"
   inkscape:version="1.3.2 (091e20ef0f, 2023-11-25, custom)"
   xmlns:inkscape="http://www.inkscape.org/namespaces/inkscape"
   xmlns:sodipodi="http://sodipodi.sourceforge.net/DTD/sodipodi-0.dtd"
   xmlns="http://www.w3.org/2000/svg"
   xmlns:svg="http://www.w3.org/2000/svg"><defs
   id="defs2" /><sodipodi:namedview
   id="namedview2"
   pagecolor="#505050"
   bordercolor="#ffffff"
   borderopacity="1"
   inkscape:showpageshadow="0"
   inkscape:pageopacity="0"
   inkscape:pagecheckerboard="1"
   inkscape:deskcolor="#505050"
   inkscape:zoom="1.3788582"
   inkscape:cx="492.43642"
   inkscape:cy="360.08053"
   inkscape:window-width="2560"
   inkscape:window-height="1378"
   inkscape:window-x="0"
   inkscape:window-y="26"
   inkscape:window-maximized="1"
   inkscape:current-layer="SVGRepo_iconCarrier" />

<g
   id="SVGRepo_bgCarrier"
   stroke-width="0" />

<g
   id="SVGRepo_tracerCarrier"
   stroke-linecap="round"
   stroke-linejoin="round" />

<g
   id="SVGRepo_iconCarrier"> <rect
   height="1066.67"
   id="Ram"
   style="fill:none;"
   width="1066.67"
   x="0.031"
   y="0.592" /> <g
   id="g2"
   style="fill:#c6d0f5;fill-opacity:1"> <path
   d="M252.329,815.175c0,-0 104.167,-0 104.167,-0l1.343,-0.162c5.981,-0.865 29.907,-5.925 29.907,-31.508l-0,-30.831c-0,-46.023 -37.31,-83.332 -83.333,-83.332l-0.084,-0c-45.977,-0 -83.25,37.272 -83.25,83.249l0,30.912l31.25,31.672Zm218.535,-0c0,-0 104.167,-0 104.167,-0l1.342,-0.162c5.982,-0.865 29.908,-5.925 29.908,-31.508l-0,-30.831c-0.001,-46.023 -37.31,-83.332 -83.334,-83.332c17.259,-0 31.25,13.991 31.25,31.25c0,17.259 -13.991,31.25 -31.25,31.25c17.259,-0 31.25,-13.991 31.25,-31.25c0,-17.259 -13.991,-31.25 -31.25,-31.25c-46.023,-0 -83.333,37.309 -83.333,83.332l0,30.831l31.25,31.67Zm-145.618,-62.5l-0,-0.002c-0.001,-11.505 -9.328,-20.831 -20.833,-20.831c-0,-0 -0.082,-0 -0.086,-0c-11.458,0.001 -20.747,9.289 -20.748,20.751l0,0.082l41.667,-0Zm218.535,-0l-0,-0.002c-0.001,-11.505 -9.328,-20.831 -20.834,-20.831c-11.505,-0 -20.832,9.326 -20.833,20.833l41.667,-0Zm364.583,-208.333l62.5,-0c17.247,-0 31.25,-14.003 31.25,-31.25c0,-17.248 -14.003,-31.25 -31.25,-31.25l-62.5,-0c-17.247,-0 -31.25,14.002 -31.25,31.25c0,17.247 14.003,31.25 31.25,31.25Zm-812.5,-0l62.5,-0c17.247,-0 31.25,-14.003 31.25,-31.25c0,-17.248 -14.003,-31.25 -31.25,-31.25l-62.5,-0c-17.247,-0 -31.25,14.002 -31.25,31.25c0,17.247 14.003,31.25 31.25,31.25Zm812.5,-104.167l62.5,-0c17.247,-0 31.25,-14.003 31.25,-31.25c0,-17.247 -14.003,-31.25 -31.25,-31.25l-62.5,-0c-17.247,-0 -31.25,14.003 -31.25,31.25c0,17.247 14.003,31.25 31.25,31.25Zm-812.5,-0l62.5,-0c17.247,-0 31.25,-14.003 31.25,-31.25c0,-17.247 -14.003,-31.25 -31.25,-31.25l-62.5,-0c-17.247,-0 -31.25,14.003 -31.25,31.25c0,17.247 14.003,31.25 31.25,31.25Z"
   style="fill-opacity:1;fill:#c6d0f5"
   id="path1" /> <path
   d="M887.532,252.675l-708.335,-0c-63.283,0 -114.583,51.301 -114.583,114.583l0,333.334c0,63.282 51.3,114.582 114.583,114.583l708.334,-0c63.283,-0.001 114.583,-51.301 114.583,-114.583l0,-333.334c-0,-63.282 -51.3,-114.583 -114.582,-114.583Zm-175.947,62.5c-0.6,28.918 -11.172,56.436 -29.187,76.943c-19.911,22.664 -47.086,35.033 -75.243,35.033l-146.417,0c-28.157,0 -55.332,-12.369 -75.243,-35.033c-18.014,-20.507 -28.587,-48.025 -29.187,-76.943l-177.113,-0c-28.763,0.001 -52.08,23.318 -52.081,52.083l0,218.75l739.583,0c17.248,0 31.25,14.003 31.25,31.25c0,17.248 -14.002,31.25 -31.25,31.25l-739.583,0l0,52.086c0.001,28.763 23.318,52.08 52.083,52.081c0,-0 708.333,-0 708.336,-0c28.763,-0.001 52.08,-23.318 52.081,-52.083l0,-333.336c-0.001,-28.763 -23.318,-52.08 -52.083,-52.081l-175.946,-0Zm-62.527,-0c-0.54,13.395 -5.252,26.174 -13.615,35.694c-7.548,8.592 -17.612,13.782 -28.287,13.782c-0.002,0 -146.417,0 -146.417,0c-10.677,-0 -20.741,-5.19 -28.289,-13.782c-8.363,-9.52 -13.075,-22.299 -13.615,-35.694l230.223,-0Z"
   id="path2"
   style="fill:#c6d0f5;fill-opacity:1" /> </g> </g>

</svg>
