<?xml version="1.0" encoding="UTF-8" standalone="no"?>
<!-- Uploaded to: SVG Repo, www.svgrepo.com, Transformed by: SVG Repo Mixer Tools -->

<svg
   width="800px"
   height="800px"
   viewBox="0 0 24 24"
   version="1.1"
   fill="#232634"
   id="svg1"
   sodipodi:docname="temp.svg"
   inkscape:version="1.3.2 (091e20ef0f, 2023-11-25, custom)"
   xmlns:inkscape="http://www.inkscape.org/namespaces/inkscape"
   xmlns:sodipodi="http://sodipodi.sourceforge.net/DTD/sodipodi-0.dtd"
   xmlns="http://www.w3.org/2000/svg"
   xmlns:svg="http://www.w3.org/2000/svg">
  <defs
     id="defs1" />
  <sodipodi:namedview
     id="namedview1"
     pagecolor="#505050"
     bordercolor="#ffffff"
     borderopacity="1"
     inkscape:showpageshadow="0"
     inkscape:pageopacity="0"
     inkscape:pagecheckerboard="1"
     inkscape:deskcolor="#505050"
     inkscape:zoom="1.3788582"
     inkscape:cx="380.02457"
     inkscape:cy="384.01338"
     inkscape:window-width="2560"
     inkscape:window-height="1378"
     inkscape:window-x="0"
     inkscape:window-y="26"
     inkscape:window-maximized="1"
     inkscape:current-layer="svg1" />
  <g
     id="SVGRepo_bgCarrier"
     stroke-width="0"
     style="fill:#c6d0f5;fill-opacity:1;stroke:none;stroke-opacity:1" />
  <g
     id="SVGRepo_tracerCarrier"
     stroke-linecap="round"
     stroke-linejoin="round"
     style="fill:#c6d0f5;fill-opacity:1;stroke:none;stroke-opacity:1" />
  <g
     id="SVGRepo_iconCarrier"
     style="fill:#c6d0f5;fill-opacity:1;stroke:none;stroke-opacity:1">
    <!-- Uploaded to: SVG Repo, www.svgrepo.com, Transformed by: SVG Repo Mixer Tools -->
    <title
       id="title1">ic_fluent_temperature_24_regular</title>
    <desc
       id="desc1">Created with Sketch.</desc>
    <g
       id="ðŸ”-Product-Icons"
       stroke="none"
       stroke-width="1"
       fill="none"
       fill-rule="evenodd"
       style="fill:#c6d0f5;fill-opacity:1;stroke:none;stroke-opacity:1">
      <g
         id="ic_fluent_temperature_24_regular"
         fill="#232634"
         fill-rule="nonzero"
         style="fill:#c6d0f5;fill-opacity:1;stroke:none;stroke-opacity:1">
        <path
           d="M12,2 C13.7330315,2 15.1492459,3.35645477 15.2448552,5.06545968 L15.25,5.24987066 L15.251,13.202 L15.3310301,13.270935 C16.2565465,14.097507 16.8481697,15.2418033 16.9745652,16.4939066 L16.9936024,16.7457024 L17,17 C17,19.7614237 14.7614237,22 12,22 C9.23857625,22 7,19.7614237 7,17 C7,15.637307 7.54959924,14.3654986 8.48922288,13.4395696 L8.66993395,13.2700735 L8.749,13.202 L8.75,5.25 C8.75,3.57886252 10.0112953,2.20231635 11.6338512,2.02039625 L11.8155761,2.00514479 L12,2 Z M12,3.5 C11.0818266,3.5 10.3288077,4.20711027 10.2558012,5.10650661 L10.25,5.25003944 L10.2495427,13.9444921 L9.94128095,14.1691409 C9.04185425,14.824607 8.5,15.8663631 8.5,17 C8.5,18.9329966 10.0670034,20.5 12,20.5 C13.9329966,20.5 15.5,18.9329966 15.5,17 C15.5,15.9375513 15.0240648,14.955799 14.2238599,14.2971002 L14.0595403,14.1697396 L13.7514995,13.9451154 L13.75,5.25 C13.75,4.28350169 12.9664983,3.5 12,3.5 Z M12,8 C12.4142136,8 12.75,8.33578644 12.75,8.75 L12.7505732,14.6146307 C13.7645539,14.9333735 14.5,15.8808004 14.5,17 C14.5,18.3807119 13.3807119,19.5 12,19.5 C10.6192881,19.5 9.5,18.3807119 9.5,17 C9.5,15.8804347 10.2359268,14.9327543 11.250421,14.6143184 L11.25,8.75 C11.25,8.33578644 11.5857864,8 12,8 Z"
           id="ðŸŽ¨-Color"
           style="fill:#c6d0f5;fill-opacity:1;stroke:none;stroke-opacity:1" />
      </g>
    </g>
  </g>
</svg>
