<?xml version="1.0" encoding="UTF-8" standalone="no"?>
<svg
   viewBox="0 0 24 24"
   version="1.1"
   id="svg1"
   sodipodi:docname="linux.svg"
   inkscape:version="1.3.2 (091e20ef0f, 2023-11-25, custom)"
   xmlns:inkscape="http://www.inkscape.org/namespaces/inkscape"
   xmlns:sodipodi="http://sodipodi.sourceforge.net/DTD/sodipodi-0.dtd"
   xmlns="http://www.w3.org/2000/svg"
   xmlns:svg="http://www.w3.org/2000/svg">
  <defs
     id="defs1" />
  <sodipodi:namedview
     id="namedview1"
     pagecolor="#505050"
     bordercolor="#ffffff"
     borderopacity="1"
     inkscape:showpageshadow="0"
     inkscape:pageopacity="0"
     inkscape:pagecheckerboard="1"
     inkscape:deskcolor="#505050"
     inkscape:zoom="33.587572"
     inkscape:cx="18.905802"
     inkscape:cy="16.062489"
     inkscape:window-width="2560"
     inkscape:window-height="1378"
     inkscape:window-x="0"
     inkscape:window-y="26"
     inkscape:window-maximized="1"
     inkscape:current-layer="svg1" />
  <title
     id="title1">linux</title>
  <path
     d="M14.62,8.35C14.2,8.63 12.87,9.39 12.67,9.54C12.28,9.85 11.92,9.83 11.53,9.53C11.33,9.37 10,8.61 9.58,8.34C9.1,8.03 9.13,7.64 9.66,7.42C11.3,6.73 12.94,6.78 14.57,7.45C15.06,7.66 15.08,8.05 14.62,8.35M21.84,15.63C20.91,13.54 19.64,11.64 18,9.97C17.47,9.42 17.14,8.8 16.94,8.09C16.84,7.76 16.77,7.42 16.7,7.08C16.5,6.2 16.41,5.3 16,4.47C15.27,2.89 14,2.07 12.16,2C10.35,2.05 9,2.81 8.21,4.4C8,4.83 7.85,5.28 7.75,5.74C7.58,6.5 7.43,7.29 7.25,8.06C7.1,8.71 6.8,9.27 6.29,9.77C4.68,11.34 3.39,13.14 2.41,15.12C2.27,15.41 2.13,15.7 2.04,16C1.85,16.66 2.33,17.12 3.03,16.96C3.47,16.87 3.91,16.78 4.33,16.65C4.74,16.5 4.9,16.6 5,17C5.65,19.15 7.07,20.66 9.24,21.5C13.36,23.06 18.17,20.84 19.21,16.92C19.28,16.65 19.38,16.55 19.68,16.65C20.14,16.79 20.61,16.89 21.08,17C21.57,17.09 21.93,16.84 22,16.36C22.03,16.1 21.94,15.87 21.84,15.63"
     id="path1"
     style="fill:#e5c890;fill-opacity:0.6;opacity:0.6" />
</svg>
