<?xml version="1.0" encoding="UTF-8" standalone="no"?>
<!-- Generator: Adobe Illustrator 27.5.0, SVG Export Plug-In . SVG Version: 6.00 Build 0)  -->

<svg
   version="1.1"
   x="0px"
   y="0px"
   viewBox="0 0 800 800"
   style="enable-background:new 0 0 800 800;"
   xml:space="preserve"
   id="svg65"
   sodipodi:docname="tea.svg"
   inkscape:version="1.3.2 (091e20ef0f, 2023-11-25, custom)"
   xmlns:inkscape="http://www.inkscape.org/namespaces/inkscape"
   xmlns:sodipodi="http://sodipodi.sourceforge.net/DTD/sodipodi-0.dtd"
   xmlns="http://www.w3.org/2000/svg"
   xmlns:svg="http://www.w3.org/2000/svg"><defs
   id="defs65" /><sodipodi:namedview
   id="namedview65"
   pagecolor="#505050"
   bordercolor="#ffffff"
   borderopacity="1"
   inkscape:showpageshadow="0"
   inkscape:pageopacity="0"
   inkscape:pagecheckerboard="1"
   inkscape:deskcolor="#505050"
   inkscape:zoom="1.4248202"
   inkscape:cx="473.39308"
   inkscape:cy="492.34284"
   inkscape:window-width="2560"
   inkscape:window-height="1380"
   inkscape:window-x="0"
   inkscape:window-y="28"
   inkscape:window-maximized="1"
   inkscape:current-layer="svg65" />

<g
   id="objects">
	
	<g
   id="g65">
		
		<g
   id="g64">
			<g
   id="g37"
   style="display:inline">
				
				
				<g
   id="g36">
					<path
   style="fill:#f9e78f"
   d="m 732.08,470.52 c -17.36,17.101 -36.33,26.98 -62.99,31.7 -10.59,1.88 -22.03,2.82 -34.269,2.82 -9.86,0 -20.261,-0.61 -31.141,-1.83 10.91,-10.29 20.95,-21.37 30.011,-33.15 10.569,0.06 20.35,-0.699 29.3,-2.29 18.96,-3.359 33.899,-10.539 43.2,-20.779 10.52,-11.57 11.44,-24.41 9.489,-30.221 -6.16,-18.319 -18.21,-27.02 -39.449,-27.209 3.63,-11.25 6.51,-22.81 8.569,-34.62 2.04,0.21 4.09,0.48 6.141,0.83 75.389,12.889 68.769,87.559 41.139,114.749 z"
   id="path30" />
					<path
   style="display:inline;fill:#f9e78f"
   d="m 516.09,574.53 c 0,14.859 -55.22,26.899 -123.34,26.899 -36.14,0 -68.64,-3.39 -91.19,-8.79 -19.97,-4.779 -32.15,-11.13 -32.15,-18.109 0,-3.74 3.49,-7.29 9.8,-10.52 5.45,-2.8 13.01,-5.34 22.24,-7.56 22.55,-5.41 55.11,-8.811 91.3,-8.811 51.25,0 95.2,6.811 113.82,16.511 6.13,3.19 9.52,6.7 9.52,10.38 z"
   id="path31" />
					<path
   style="display:inline;fill:#f9e78f"
   d="m 687.87,330.58 c -0.64,8.23 -1.66,16.35 -3.07,24.36 -2.06,11.81 -4.939,23.37 -8.569,34.62 -9.41,29.17 -23.91,56.3 -42.54,80.5 -9.06,11.78 -19.101,22.86 -30.011,33.15 -17.029,16.07 -36.18,30.19 -57.029,41.99 -12.761,7.22 -26.15,13.569 -40.08,18.95 -34.95,13.51 -73.28,20.97 -113.48,20.97 -27.87,0 -54.84,-3.58 -80.4,-10.28 -11.46,-3 -22.63,-6.62 -33.48,-10.83 -7.67,-2.98 -15.18,-6.25 -22.51,-9.8 -11.25,-5.441 -22.08,-11.54 -32.43,-18.25 -24.76,-16.03 -46.76,-35.5 -65.19,-57.66 1.48,0.92 2.98,1.84 4.48,2.74 1.18,0.71 2.37,1.42 3.56,2.11 0.51,0.3 1.03,0.6 1.55,0.899 1.13,0.66 2.27,1.311 3.41,1.94 0.39,0.229 0.78,0.45 1.18,0.66 1.35,0.77 2.71,1.51 4.08,2.25 0.78,0.43 1.57,0.85 2.36,1.27 0.15,0.08 0.29,0.15 0.44,0.23 0.9,0.48 1.8,0.949 2.71,1.409 0.3,0.171 0.6,0.32 0.9,0.471 0.56,0.29 1.13,0.58 1.7,0.87 1.29,0.659 2.59,1.31 3.89,1.949 0.03,0.02 0.06,0.03 0.1,0.051 1.35,0.659 2.71,1.319 4.07,1.97 0.57,0.27 1.13,0.54 1.7,0.8 1.48,0.7 2.97,1.39 4.47,2.07 1.36,0.609 2.72,1.22 4.1,1.819 0.29,0.141 0.58,0.261 0.88,0.391 1.32,0.58 2.65,1.149 3.99,1.71 1.43,0.609 2.86,1.2 4.3,1.78 0.98,0.399 1.96,0.8 2.95,1.18 1.03,0.42 2.06,0.83 3.1,1.22 0.58,0.23 1.16,0.45 1.74,0.67 1.32,0.51 2.65,1 3.98,1.49 1.44,0.53 2.89,1.05 4.34,1.56 0.61,0.221 1.22,0.44 1.84,0.65 1.67,0.59 3.34,1.16 5.03,1.72 1.55,0.521 3.11,1.021 4.68,1.521 0.03,0.01 0.06,0.02 0.08,0.03 1.39,0.439 2.79,0.88 4.19,1.3 0.72,0.22 1.43,0.439 2.15,0.649 0.26,0.08 0.53,0.16 0.8,0.24 1.07,0.32 2.14,0.63 3.22,0.95 0.37,0.1 0.75,0.21 1.13,0.32 1.48,0.42 2.97,0.829 4.47,1.239 0.2,0.06 0.41,0.11 0.62,0.16 1.44,0.391 2.88,0.771 4.33,1.141 0.55,0.149 1.11,0.289 1.68,0.43 0.97,0.25 1.93,0.49 2.9,0.729 1.17,0.28 2.35,0.561 3.53,0.841 1.09,0.26 2.18,0.51 3.27,0.75 1.1,0.25 2.2,0.489 3.3,0.729 1.26,0.28 2.54,0.55 3.81,0.809 0.95,0.191 1.9,0.391 2.85,0.57 1.11,0.231 2.22,0.44 3.34,0.65 0.74,0.149 1.49,0.29 2.24,0.42 0.68,0.13 1.37,0.25 2.06,0.38 h 0.03 c 1.09,0.2 2.18,0.39 3.27,0.57 0.01,0 0.01,0 0.02,0 1.96,0.34 3.92,0.659 5.89,0.96 1.14,0.18 2.27,0.35 3.41,0.51 2.28,0.34 4.56,0.65 6.85,0.939 1.15,0.15 2.3,0.29 3.45,0.431 1.15,0.14 2.3,0.27 3.45,0.399 1.15,0.131 2.31,0.25 3.47,0.37 1.15,0.12 2.31,0.23 3.47,0.34 0.69,0.07 1.37,0.131 2.06,0.19 0.74,0.07 1.48,0.13 2.22,0.19 1.13,0.1 2.27,0.189 3.4,0.27 1.99,0.15 3.98,0.29 5.98,0.41 0.12,0.01 0.24,0.01 0.36,0.019 1.17,0.07 2.35,0.13 3.53,0.19 1.17,0.07 2.35,0.12 3.53,0.17 0.9,0.04 1.8,0.07 2.69,0.11 0.65,0.019 1.29,0.04 1.93,0.06 0.83,0.03 1.66,0.05 2.49,0.07 1.17,0.029 2.33,0.06 3.5,0.08 h 0.08 c 0.67,0.01 1.34,0.019 2.01,0.019 1.71,0.03 3.42,0.04 5.14,0.04 1.93,0 3.86,-0.01 5.78,-0.04 0.38,0 0.76,-0.01 1.14,-0.019 1.16,-0.021 2.31,-0.04 3.45,-0.07 1.15,-0.03 2.3,-0.06 3.45,-0.1 0.66,-0.021 1.33,-0.04 1.99,-0.07 0.71,-0.021 1.42,-0.05 2.13,-0.08 0.91,-0.04 1.82,-0.08 2.73,-0.13 0.73,-0.04 1.45,-0.07 2.17,-0.11 0.83,-0.05 1.66,-0.1 2.48,-0.149 1.2,-0.07 2.39,-0.15 3.58,-0.231 0.87,-0.06 1.73,-0.12 2.6,-0.189 0.81,-0.061 1.61,-0.12 2.41,-0.19 0.81,-0.06 1.63,-0.13 2.45,-0.21 0.83,-0.07 1.66,-0.14 2.49,-0.23 0.89,-0.079 1.79,-0.159 2.68,-0.25 0.95,-0.1 1.891,-0.199 2.83,-0.3 0.79,-0.08 1.59,-0.17 2.38,-0.26 0.95,-0.11 1.891,-0.22 2.83,-0.33 0.79,-0.1 1.59,-0.2 2.39,-0.3 0.801,-0.101 1.61,-0.2 2.41,-0.311 2.21,-0.29 4.41,-0.6 6.61,-0.93 2.18,-0.33 4.36,-0.67 6.53,-1.03 0.02,0 0.029,-0.01 0.04,-0.01 0.54,-0.09 1.069,-0.18 1.609,-0.28 h 0.011 c 1.64,-0.27 3.27,-0.56 4.899,-0.859 0.82,-0.15 1.64,-0.3 2.46,-0.46 4.58,-0.87 9.13,-1.82 13.641,-2.84 0.76,-0.17 1.51,-0.341 2.26,-0.521 0.74,-0.17 1.47,-0.34 2.21,-0.519 0.99,-0.24 1.979,-0.481 2.96,-0.721 1.84,-0.449 3.68,-0.92 5.51,-1.409 0.86,-0.221 1.71,-0.441 2.561,-0.681 0.229,-0.06 0.46,-0.12 0.68,-0.18 0.88,-0.24 1.76,-0.481 2.64,-0.731 1.07,-0.29 2.12,-0.59 3.181,-0.899 1.029,-0.3 2.06,-0.601 3.09,-0.91 0.79,-0.23 1.58,-0.47 2.359,-0.71 0.59,-0.18 1.181,-0.36 1.761,-0.54 l 2.01,-0.63 c 0.89,-0.28 1.78,-0.561 2.66,-0.851 1.06,-0.34 2.13,-0.689 3.189,-1.05 0.61,-0.2 1.23,-0.41 1.84,-0.62 5.5,-1.859 10.92,-3.85 16.261,-5.939 0.739,-0.29 1.47,-0.58 2.199,-0.87 2.19,-0.87 4.37,-1.77 6.53,-2.68 0.8,-0.33 1.601,-0.671 2.4,-1.021 2.66,-1.14 5.29,-2.309 7.899,-3.5 0.75,-0.35 1.49,-0.689 2.24,-1.04 8.061,-3.76 15.91,-7.78 23.53,-12.06 0.89,-0.49 1.769,-0.99 2.649,-1.5 0.881,-0.5 1.761,-1.011 2.641,-1.521 0.87,-0.51 1.74,-1.02 2.609,-1.54 2.17,-1.29 4.33,-2.609 6.46,-3.939 1.07,-0.67 2.131,-1.34 3.181,-2.021 1.06,-0.68 2.109,-1.359 3.16,-2.05 0.76,-0.49 1.51,-1 2.26,-1.5 3.53,-2.36 6.99,-4.77 10.38,-7.24 0.8,-0.569 1.59,-1.149 2.37,-1.74 0.899,-0.659 1.8,-1.329 2.689,-2.01 1.33,-1 2.65,-2.02 3.96,-3.04 0.73,-0.569 1.45,-1.13 2.16,-1.71 0.731,-0.58 1.46,-1.16 2.19,-1.75 0.72,-0.58 1.439,-1.17 2.16,-1.77 0.699,-0.57 1.399,-1.15 2.09,-1.74 1.82,-1.52 3.609,-3.06 5.39,-4.62 0.45,-0.39 0.891,-0.79 1.34,-1.18 5.4,-4.811 10.591,-9.76 15.561,-14.87 0.56,-0.57 1.109,-1.14 1.66,-1.71 1.64,-1.71 3.25,-3.44 4.84,-5.18 0.729,-0.79 1.45,-1.591 2.17,-2.4 1.41,-1.58 2.79,-3.17 4.17,-4.78 2.91,-3.42 5.729,-6.89 8.45,-10.42 0.56,-0.71 1.1,-1.42 1.64,-2.14 0.67,-0.88 1.33,-1.76 1.99,-2.65 0.54,-0.75 1.09,-1.49 1.63,-2.24 0.68,-0.94 1.35,-1.88 2.01,-2.82 0.61,-0.87 1.21,-1.73 1.811,-2.61 0.59,-0.87 1.18,-1.74 1.769,-2.62 1.74,-2.61 3.43,-5.24 5.07,-7.9 0.39,-0.62 0.77,-1.24 1.149,-1.87 0.28,-0.47 0.56,-0.93 0.841,-1.4 0.43,-0.72 0.859,-1.45 1.279,-2.18 1.761,-3.01 3.45,-6.05 5.07,-9.12 0.29,-0.53 0.56,-1.07 0.84,-1.6 0.62,-1.19 1.231,-2.39 1.83,-3.59 0.28,-0.57 0.561,-1.14 0.84,-1.71 1.16,-2.36 2.271,-4.73 3.34,-7.12 0.44,-0.98 0.881,-1.96 1.301,-2.94 0.43,-0.98 0.85,-1.97 1.26,-2.96 0.32,-0.74 0.62,-1.48 0.92,-2.22 l 0.63,-1.56 c 0.29,-0.72 0.57,-1.45 0.85,-2.17 0.36,-0.93 0.71,-1.85 1.051,-2.77 1.157,-3.073 2.238,-6.183 3.258,-9.313 z"
   id="path32" />
					<path
   style="display:inline;fill:#e0d9b1"
   d="m 686.005,310.565 c 0,36.875 -131.66,66.767 -294.073,66.767 -152.915,0 -278.569,-26.492 -292.731,-60.373 -0.895,-2.104 -1.342,-4.237 -1.342,-6.393 0,-2.155 0.447,-4.29 1.342,-6.392 14.162,-33.883 139.816,-60.375 292.731,-60.375 162.413,-0.001 294.073,29.891 294.073,66.766 z"
   id="path33" />
					<path
   style="display:inline;fill:#b2b286"
   d="m 666.455,366.223 c 0,23.9 -123.346,43.275 -275.5,43.275 -152.154,0 -275.5,-19.375 -275.5,-43.275 0,-23.899 123.346,-43.274 275.5,-43.274 152.154,0 275.5,19.374 275.5,43.274 z"
   id="path34" />
					<path
   style="fill:#fff69f"
   d="m 392.45,377.33 c -38.49,0 -75.26,-1.66 -108.99,-4.67 -0.9,-0.08 -1.8,-0.16 -2.7,-0.24 -30.33,-2.79 -58.14,-6.67 -82.47,-11.44 -0.9,-0.17 -1.79,-0.34 -2.67,-0.52 -54.34,-10.9 -90.75,-26.25 -98.02,-43.5 1.49,60.69 24.19,116.521 61.48,161.34 5.93,3.69 12.02,7.23 18.26,10.601 0.78,0.43 1.57,0.85 2.36,1.27 50.82,26.98 111.13,43.05 175.96,44.15 0.67,0.01 1.34,0.019 2.01,0.019 1.71,0.03 3.42,0.04 5.14,0.04 155.77,0 286.84,-86.45 325.06,-203.8 0.51,-6.61 0.78,-13.28 0.78,-20.02 0,36.88 -132.61,66.77 -296.2,66.77 z"
   id="path35" />
					<path
   style="fill:#ffffff"
   d="m 391.932,379.955 c -73.817,0 -144.465,-6.228 -198.932,-17.536 -38.786,-8.053 -86.963,-22.301 -96.221,-44.449 -1.023,-2.402 -1.545,-4.899 -1.545,-7.405 0,-2.507 0.522,-5.003 1.552,-7.42 9.25,-22.133 57.428,-36.381 96.213,-44.435 54.466,-11.308 125.114,-17.536 198.932,-17.536 78.739,0 152.793,6.969 208.522,19.621 40.225,9.133 88.174,25.181 88.174,49.77 0,24.589 -47.949,40.638 -88.174,49.77 -55.727,12.651 -129.78,19.62 -208.521,19.62 z m 0,-133.533 c -73.47,0 -143.74,6.188 -197.865,17.427 -52.31,10.861 -86.005,25.927 -92.445,41.336 -0.758,1.779 -1.139,3.584 -1.139,5.38 0,1.796 0.381,3.6 1.132,5.366 6.447,15.424 40.142,30.489 92.452,41.35 54.125,11.238 124.395,17.427 197.865,17.427 78.362,0 152.002,-6.922 207.36,-19.491 53.439,-12.132 84.088,-28.406 84.088,-44.651 0,-16.244 -30.648,-32.52 -84.088,-44.651 -55.357,-12.57 -129,-19.493 -207.36,-19.493 z"
   id="path36" />
				</g>
			</g>
			<g
   id="g63"
   style="display:inline">
				<g
   id="g38">
					<polygon
   style="fill:#f9e78f"
   points="311.081,540.359 328.155,520.716 383.349,516.859 402.943,533.896 406.801,589.112 389.744,608.727 334.595,612.58 314.933,595.479 "
   id="polygon37" />
					<path
   style="fill:#f9e78f"
   d="m 335.835,424.93 c -10.39,-11.059 -24.27,-16.379 -41.27,-15.77 -0.47,0.02 -0.93,0.039 -1.38,0.07 0.65,-13.44 -3.11,-24.83 -9.51,-33.89 -0.9,-0.08 -1.8,-0.16 -2.7,-0.24 6.84,9 10.92,20.54 10.2,34.3 -17.32,1.85 -19.24,12.699 -19.4,16.15 -0.29,6.17 3.08,11.66 7.51,12.24 2.53,0.33 8.81,-0.701 12.41,-17.4 0.68,-3.15 1.12,-6.201 1.36,-9.15 0.51,-0.029 1.04,-0.061 1.58,-0.08 16.39,-0.57 29.76,4.52 39.74,15.141 12.5,13.32 19.9,35.309 21.99,65.35 1.18,17.01 0.43,33.31 -0.49,45.35 0.67,0.01 1.34,0.019 2.01,0.019 2.33,-29.899 3.55,-84.809 -22.05,-112.09 z m -46.1,-4.969 c -2.25,10.459 -6.06,16.389 -10.19,15.85 -3.31,-0.43 -6.01,-5.18 -5.77,-10.17 0.14,-3.01 1.85,-12.41 17.26,-14.211 -0.24,2.76 -0.66,5.599 -1.3,8.531 z"
   id="path37" />
					<path
   style="fill:#f9e78f"
   d="m 176.885,392.17 c -16.25,39.89 2.94,100.04 3.14,100.64 l -0.11,0.039 c -0.79,-0.42 -1.58,-0.84 -2.36,-1.27 -3.1,-10.539 -17.42,-63.58 -2.53,-100.16 5.08,-12.48 12.37,-21.75 20.81,-28.28 0.88,0.18 1.77,0.35 2.67,0.52 -8.8,6.381 -16.41,15.701 -21.62,28.511 z"
   id="path38" />
				</g>
				<g
   id="g62">
					<g
   id="g39">
						<polygon
   style="fill:#5f9979"
   points="298.217,545.058 315.29,525.414 370.484,521.558 390.078,538.594 393.935,593.81 376.879,613.425 321.73,617.278 302.068,600.178 "
   id="polygon38" />
						<polygon
   style="fill:#fff69f"
   points="374.201,608.049 323.637,611.582 307.441,597.5 303.91,546.962 317.97,530.786 368.578,527.251 384.707,541.273 388.244,591.902 "
   id="polygon39" />
					</g>
					<polygon
   style="fill:#595651"
   points="344.485,526.88 339.225,527.25 339.095,525.42 344.595,525.04 346.625,524.89 351.685,524.54 351.815,526.37 346.515,526.74 "
   id="polygon40" />
					<g
   id="g44">
						<g
   id="g41">
							<path
   style="fill:#83c6a0"
   d="m 353.027,591.316 c -0.081,0.09 -0.17,0.186 -0.258,0.275 -8.033,8.379 -46.705,12.955 -41.628,-40.858 0.027,-0.258 0.056,-0.521 0.079,-0.778 0,0 0.227,0.04 0.644,0.123 8.08,6.842 36.045,30.943 41.163,41.238 z"
   id="path40" />
							<path
   style="fill:#5f9979"
   d="m 353.027,591.316 c -5.118,-10.296 -33.083,-34.396 -41.163,-41.238 6.919,1.363 66.738,14.066 41.163,41.238 z"
   id="path41" />
						</g>
						<g
   id="g43">
							<path
   style="fill:#83c6a0"
   d="m 363.268,590.487 c -0.041,-0.038 -0.087,-0.078 -0.126,-0.12 -3.905,-3.74 -6.033,-21.747 19.022,-19.382 0.119,0.012 0.242,0.024 0.361,0.035 0,0 -0.018,0.104 -0.057,0.299 -14.505,9.923 -14.407,16.787 -19.2,19.168 z"
   id="path42" />
							<path
   style="fill:#5f9979"
   d="m 363.268,590.487 c 4.794,-2.382 7.66,-11.692 19.258,-19.467 4.252,8.908 -5.71,27.538 -19.258,19.467 z"
   id="path43" />
						</g>
						<path
   style="fill:#3c5f42"
   d="m 373.492,586.29 c -0.738,0.053 -1.598,0.173 -2.494,0.41 -0.9,0.222 -1.84,0.556 -2.742,0.981 -0.117,0.063 -0.236,0.123 -0.355,0.184 0.27,-0.394 0.54,-0.79 0.807,-1.179 0.559,-0.724 1.088,-1.453 1.596,-2.166 0.508,-0.711 0.985,-1.413 1.432,-2.086 0.456,-0.666 0.932,-1.261 1.336,-1.843 0.835,-1.141 1.485,-2.147 1.932,-2.866 0.448,-0.718 0.682,-1.156 0.682,-1.156 0,0 -0.416,0.25 -1.106,0.736 -0.69,0.486 -1.665,1.2 -2.78,2.125 -0.553,0.465 -1.189,0.94 -1.773,1.525 -0.578,0.591 -1.181,1.222 -1.791,1.889 -0.609,0.668 -1.236,1.362 -1.851,2.087 -0.124,0.15 -0.236,0.313 -0.354,0.469 0.004,-0.095 0.018,-0.195 0.019,-0.289 0.03,-0.926 -0.046,-1.79 -0.162,-2.521 -0.218,-1.467 -0.657,-2.388 -0.657,-2.388 0,0 -0.23,0.98 -0.486,2.375 -0.129,0.689 -0.281,1.493 -0.442,2.355 -0.059,0.43 -0.19,0.859 -0.258,1.306 -0.094,0.438 -0.189,0.885 -0.285,1.331 -0.112,0.439 -0.192,0.89 -0.314,1.317 -0.035,0.115 -0.06,0.233 -0.088,0.35 -0.09,0.14 -0.187,0.277 -0.272,0.42 -0.47,0.829 -0.914,1.656 -1.332,2.461 -0.206,0.403 -0.408,0.8 -0.605,1.188 -0.169,0.404 -0.334,0.8 -0.495,1.185 -0.315,0.772 -0.586,1.512 -0.832,2.192 -0.22,0.697 -0.389,1.346 -0.538,1.917 -0.167,0.561 -0.244,1.087 -0.316,1.506 -0.147,0.813 -0.159,1.287 -0.159,1.315 -0.128,-0.465 -0.353,-1.229 -0.712,-2.247 -0.323,-0.854 -0.689,-1.912 -1.221,-3.067 -0.494,-1.18 -1.116,-2.474 -1.82,-3.879 -0.741,-1.377 -1.532,-2.89 -2.479,-4.414 -0.475,-0.763 -0.962,-1.547 -1.461,-2.349 -0.51,-0.794 -1.073,-1.574 -1.626,-2.384 -0.069,-0.103 -0.144,-0.204 -0.214,-0.307 -0.099,-0.385 -0.136,-0.8 -0.229,-1.206 -0.092,-0.435 -0.139,-0.89 -0.22,-1.336 -0.064,-0.451 -0.127,-0.903 -0.19,-1.349 -0.036,-0.449 -0.136,-0.888 -0.165,-1.32 -0.1,-0.871 -0.194,-1.685 -0.275,-2.382 -0.157,-1.41 -0.318,-2.403 -0.317,-2.403 0,0 -0.503,0.889 -0.824,2.336 -0.167,0.722 -0.304,1.578 -0.339,2.504 -0.031,0.559 -0.016,1.143 0.022,1.735 -0.287,-0.369 -0.576,-0.738 -0.866,-1.109 -0.938,-1.197 -1.952,-2.354 -2.966,-3.515 -0.008,-0.035 -0.013,-0.07 -0.022,-0.104 -0.108,-0.434 -0.173,-0.89 -0.271,-1.335 -0.084,-0.451 -0.167,-0.902 -0.249,-1.346 -0.057,-0.45 -0.175,-0.886 -0.226,-1.317 -0.057,-0.431 -0.148,-0.846 -0.206,-1.245 -0.068,-0.399 -0.132,-0.778 -0.191,-1.128 -0.233,-1.403 -0.452,-2.387 -0.452,-2.387 0,0 -0.449,0.918 -0.691,2.381 -0.13,0.729 -0.218,1.592 -0.212,2.519 -0.003,0.412 0.02,0.84 0.054,1.271 -0.977,-1.021 -1.954,-2.036 -2.947,-3.013 -0.77,-0.729 -1.542,-1.441 -2.308,-2.141 -0.132,-0.479 -0.262,-0.951 -0.387,-1.406 -0.223,-0.84 -0.44,-1.63 -0.641,-2.314 -0.387,-1.365 -0.723,-2.309 -0.723,-2.309 0,0 -0.335,0.96 -0.414,2.43 -0.036,0.496 -0.03,1.06 -0.002,1.648 -1.497,-1.24 -2.964,-2.414 -4.363,-3.513 -1.404,-1.107 -2.829,-2.036 -4.108,-2.93 -1.293,-0.876 -2.477,-1.676 -3.589,-2.3 -1.087,-0.655 -2.065,-1.185 -2.861,-1.627 -1.597,-0.88 -2.54,-1.331 -2.54,-1.331 0,0 0.685,0.804 1.936,2.121 0.628,0.656 1.38,1.462 2.276,2.336 0.902,0.867 1.845,1.934 2.923,3.027 1.061,1.113 2.27,2.246 3.47,3.524 0.158,0.166 0.328,0.34 0.489,0.508 -0.241,-0.088 -0.485,-0.17 -0.742,-0.213 -0.466,-0.112 -0.945,-0.205 -1.423,-0.301 -0.479,-0.095 -0.96,-0.169 -1.441,-0.189 -0.477,-0.044 -0.951,-0.048 -1.405,-0.071 -0.455,-0.025 -0.9,0.031 -1.316,0.052 -0.417,0.025 -0.81,0.058 -1.173,0.13 -1.454,0.213 -2.369,0.642 -2.369,0.642 0,0 0.241,0.057 0.662,0.155 0.413,0.083 0.998,0.225 1.693,0.346 0.347,0.053 0.721,0.153 1.115,0.214 0.392,0.067 0.807,0.138 1.235,0.212 0.426,0.077 0.863,0.179 1.311,0.242 0.448,0.063 0.9,0.138 1.348,0.239 0.899,0.174 1.815,0.274 2.655,0.463 0.42,0.093 0.838,0.147 1.235,0.206 0.293,0.038 0.554,0.091 0.816,0.142 0.381,0.387 0.755,0.772 1.147,1.162 1.296,1.395 2.639,2.828 4.037,4.249 0.016,0.017 0.032,0.034 0.047,0.051 -0.266,-0.047 -0.537,-0.09 -0.815,-0.123 -1.027,-0.13 -2.129,-0.165 -3.223,-0.11 -1.092,0.067 -2.177,0.209 -3.174,0.428 -1.001,0.199 -1.914,0.477 -2.684,0.753 -1.542,0.547 -2.48,1.16 -2.48,1.16 0,0 1.111,0.034 2.702,-0.039 0.799,-0.02 1.717,-0.081 2.696,-0.134 0.973,-0.055 2.009,-0.113 3.046,-0.171 0.515,-0.025 1.031,-0.051 1.538,-0.075 0.504,0.004 1.006,-0.056 1.487,-0.053 0.479,0.017 0.952,-0.029 1.394,-0.02 0.352,0.018 0.69,0.01 1.014,0.008 0.85,0.919 1.697,1.834 2.552,2.759 0.997,1.114 1.987,2.22 2.975,3.323 -0.722,-0.149 -1.557,-0.248 -2.448,-0.238 -0.493,0.013 -1.002,0.038 -1.518,0.09 -0.508,0.074 -1.027,0.157 -1.537,0.266 -0.503,0.133 -1.015,0.237 -1.496,0.41 -0.488,0.149 -0.955,0.338 -1.402,0.522 -0.898,0.363 -1.695,0.795 -2.355,1.2 -1.324,0.81 -2.059,1.58 -2.059,1.58 0,0 1.04,-0.174 2.497,-0.524 0.736,-0.158 1.573,-0.376 2.467,-0.588 0.442,-0.124 0.91,-0.207 1.373,-0.325 0.463,-0.121 0.938,-0.21 1.408,-0.323 0.471,-0.102 0.941,-0.202 1.405,-0.302 0.465,-0.063 0.919,-0.188 1.364,-0.251 0.443,-0.042 0.874,-0.146 1.284,-0.19 0.408,-0.028 0.801,-0.095 1.166,-0.133 0.311,-0.008 0.597,-0.033 0.868,-0.057 0.011,0.012 0.021,0.024 0.032,0.036 1.288,1.517 2.621,2.958 3.826,4.424 0.617,0.723 1.225,1.433 1.818,2.128 0.583,0.706 1.153,1.397 1.708,2.068 1.132,1.332 2.14,2.638 3.12,3.817 0.935,1.205 1.849,2.285 2.602,3.279 0.768,0.992 1.438,1.857 1.989,2.569 1.091,1.454 1.714,2.285 1.714,2.285 0,0 -0.041,-0.18 -0.129,-0.501 0.006,-0.01 0.264,-0.427 0.715,-1.121 0.42,-0.711 1.129,-1.685 1.844,-2.886 0.404,-0.581 0.842,-1.207 1.273,-1.88 0.215,-0.337 0.436,-0.683 0.662,-1.035 0.242,-0.344 0.489,-0.695 0.741,-1.053 0.43,-0.62 0.86,-1.271 1.287,-1.93 0.116,-0.067 0.233,-0.133 0.346,-0.21 0.323,-0.22 0.707,-0.392 1.067,-0.614 0.355,-0.23 0.774,-0.391 1.159,-0.612 0.389,-0.215 0.81,-0.393 1.213,-0.603 0.413,-0.193 0.827,-0.387 1.233,-0.577 0.419,-0.166 0.809,-0.391 1.214,-0.545 0.803,-0.352 1.553,-0.68 2.196,-0.961 1.302,-0.565 2.205,-1.009 2.205,-1.009 0,0 -0.994,-0.217 -2.472,-0.1 z"
   id="path44" />
					</g>
					<g
   id="g47">
						<path
   style="fill:#5d4837"
   d="m 336.722,535.44 0.246,3.535 1.79,-0.125 0.059,0.836 -1.79,0.126 0.494,7.075 c 0.014,0.186 0.035,0.396 0.067,0.637 0.031,0.238 0.091,0.463 0.176,0.674 0.086,0.213 0.207,0.387 0.363,0.523 0.158,0.136 0.368,0.195 0.633,0.177 0.418,-0.029 0.803,-0.267 1.153,-0.712 0.351,-0.445 0.604,-1.102 0.762,-1.969 l 0.859,-0.06 c -0.194,0.995 -0.424,1.787 -0.686,2.373 -0.264,0.588 -0.547,1.039 -0.853,1.356 -0.305,0.317 -0.613,0.53 -0.925,0.638 -0.313,0.108 -0.6,0.17 -0.863,0.189 -0.558,0.038 -1.023,-0.034 -1.394,-0.218 -0.371,-0.184 -0.669,-0.431 -0.893,-0.742 -0.226,-0.311 -0.389,-0.66 -0.495,-1.049 -0.105,-0.389 -0.171,-0.777 -0.197,-1.164 l -0.529,-7.566 -0.791,0.056 -0.059,-0.836 0.791,-0.057 -0.224,-3.209 z"
   id="path45" />
						<path
   style="fill:#5d4837"
   d="m 347.588,541.153 c 0.076,1.085 -0.306,2.023 -1.146,2.813 -0.841,0.792 -2.046,1.328 -3.614,1.609 0.104,0.615 0.253,1.111 0.442,1.487 0.19,0.376 0.408,0.669 0.656,0.878 0.249,0.208 0.528,0.344 0.836,0.408 0.308,0.065 0.624,0.085 0.95,0.063 0.744,-0.053 1.429,-0.295 2.052,-0.728 0.624,-0.434 1.105,-1.121 1.444,-2.064 l 0.744,-0.052 c -0.16,0.588 -0.4,1.154 -0.721,1.697 -0.322,0.545 -0.708,1.031 -1.16,1.461 -0.454,0.428 -0.951,0.779 -1.493,1.051 -0.542,0.272 -1.107,0.428 -1.696,0.469 -0.543,0.037 -1.072,-0.019 -1.589,-0.17 -0.518,-0.15 -0.984,-0.426 -1.401,-0.824 -0.418,-0.4 -0.771,-0.932 -1.059,-1.598 -0.287,-0.665 -0.467,-1.494 -0.536,-2.486 -0.046,-0.65 -0.021,-1.361 0.073,-2.131 0.094,-0.771 0.294,-1.493 0.597,-2.168 0.304,-0.676 0.723,-1.25 1.258,-1.725 0.536,-0.473 1.222,-0.74 2.06,-0.799 0.387,-0.026 0.766,-0.01 1.136,0.05 0.371,0.06 0.711,0.192 1.022,0.396 0.31,0.205 0.568,0.495 0.772,0.869 0.206,0.377 0.33,0.874 0.373,1.494 z m -4.848,3.517 c 1.087,-0.247 1.934,-0.695 2.534,-1.346 0.601,-0.648 0.871,-1.416 0.81,-2.299 -0.041,-0.59 -0.173,-1.006 -0.392,-1.246 -0.22,-0.242 -0.515,-0.351 -0.887,-0.324 -0.403,0.027 -0.745,0.209 -1.025,0.539 -0.28,0.332 -0.505,0.748 -0.672,1.25 -0.168,0.503 -0.281,1.057 -0.34,1.66 -0.059,0.604 -0.068,1.193 -0.028,1.766 z"
   id="path46" />
						<path
   style="fill:#5d4837"
   d="m 357.244,537.559 0.553,7.906 c 0.011,0.154 0.032,0.348 0.064,0.579 0.031,0.232 0.091,0.457 0.176,0.677 0.085,0.221 0.203,0.407 0.355,0.561 0.15,0.152 0.351,0.221 0.598,0.203 0.76,-0.053 1.259,-0.938 1.497,-2.652 l 0.86,-0.06 c -0.103,0.989 -0.266,1.775 -0.488,2.36 -0.225,0.585 -0.474,1.034 -0.748,1.349 -0.275,0.315 -0.563,0.526 -0.866,0.633 -0.305,0.107 -0.581,0.17 -0.829,0.187 -0.356,0.024 -0.666,-0.016 -0.932,-0.121 -0.264,-0.106 -0.492,-0.255 -0.685,-0.443 -0.192,-0.189 -0.352,-0.411 -0.479,-0.667 -0.127,-0.256 -0.231,-0.529 -0.313,-0.82 -0.191,0.621 -0.53,1.167 -1.02,1.637 -0.488,0.471 -1.105,0.732 -1.85,0.783 -0.466,0.033 -0.939,-0.027 -1.426,-0.18 -0.486,-0.152 -0.934,-0.429 -1.343,-0.829 -0.41,-0.399 -0.759,-0.929 -1.047,-1.587 -0.287,-0.657 -0.465,-1.475 -0.533,-2.451 -0.05,-0.713 -0.021,-1.462 0.089,-2.248 0.108,-0.787 0.318,-1.511 0.631,-2.172 0.313,-0.66 0.733,-1.219 1.261,-1.677 0.529,-0.458 1.189,-0.714 1.979,-0.77 0.187,-0.013 0.385,-0.007 0.598,0.017 0.212,0.023 0.417,0.073 0.618,0.151 0.2,0.077 0.391,0.19 0.572,0.339 0.181,0.146 0.335,0.332 0.46,0.553 l -0.077,-1.094 z m -3.649,10.302 c 0.232,-0.017 0.465,-0.1 0.695,-0.248 0.23,-0.148 0.436,-0.344 0.613,-0.582 0.179,-0.238 0.319,-0.518 0.421,-0.838 0.103,-0.318 0.142,-0.657 0.116,-1.016 l -0.371,-5.315 c -0.126,-0.241 -0.311,-0.458 -0.549,-0.653 -0.239,-0.193 -0.537,-0.278 -0.893,-0.254 -0.497,0.035 -0.911,0.232 -1.244,0.591 -0.333,0.36 -0.591,0.8 -0.772,1.319 -0.182,0.521 -0.303,1.084 -0.361,1.69 -0.059,0.606 -0.069,1.18 -0.031,1.724 0.094,1.337 0.343,2.28 0.747,2.829 0.403,0.55 0.946,0.8 1.629,0.753 z"
   id="path47" />
					</g>
					<g
   id="g61">
						<polygon
   style="fill:#c9c8c8"
   points="87.902,521.767 132.426,485.404 193.58,481.132 242.857,510.94 256.848,663.428 98.573,674.486 "
   id="polygon47" />
						<polygon
   style="fill:#ddddc7"
   points="91.036,521.547 135.558,485.186 200.162,480.672 246.176,510.707 256.848,663.428 101.706,674.268 "
   id="polygon48" />
						<polygon
   style="fill:#c4c2ae"
   points="188.176,505.94 200.162,480.672 132.426,485.404 147.888,508.754 "
   id="polygon49" />
						
							<rect
   x="159.183"
   y="485.80899"
   transform="matrix(0.9976,-0.0697,0.0697,0.9976,-33.5311,12.8374)"
   style="fill:#595651"
   width="16.162001"
   height="2.5869999"
   id="rect49" />
						<g
   id="g60">
							<path
   style="fill:#799987"
   d="m 253.071,611.699 c -0.712,-0.437 -1.573,-0.746 -2.555,-0.949 0.106,-0.088 0.175,-0.253 0.161,-0.441 -0.018,-0.266 -0.188,-0.471 -0.374,-0.457 -0.187,0.013 -0.323,0.239 -0.304,0.505 0.008,0.123 0.053,0.233 0.113,0.312 -0.236,-0.038 -0.477,-0.071 -0.724,-0.102 0.134,-0.104 0.22,-0.329 0.201,-0.59 -0.023,-0.344 -0.216,-0.608 -0.431,-0.593 -0.021,0.002 -0.041,0.018 -0.061,0.023 -0.176,-0.355 -0.602,-0.595 -1.089,-0.56 -0.515,0.036 -0.923,0.362 -1.021,0.769 -0.099,-0.059 -0.219,-0.093 -0.351,-0.097 0.013,-0.036 0.023,-0.073 0.021,-0.114 -0.011,-0.14 -0.123,-0.246 -0.248,-0.237 -0.129,0.009 -0.225,0.13 -0.215,0.271 0.005,0.067 0.035,0.127 0.079,0.17 -0.007,0.002 -0.007,0.004 -0.011,0.009 -0.004,0 -0.006,-0.002 -0.008,-0.002 -0.231,0.017 -0.407,0.156 -0.396,0.313 0.004,0.042 0.02,0.078 0.047,0.115 -0.07,-0.006 -0.145,-0.006 -0.225,10e-4 -0.331,0.023 -0.592,0.121 -0.586,0.221 0.008,0.101 0.28,0.163 0.61,0.14 0.14,-0.01 0.263,-0.035 0.362,-0.067 0.031,0.043 0.063,0.082 0.105,0.115 -0.428,0.014 -0.863,0.041 -1.311,0.074 0.005,-0.021 0.016,-0.043 0.014,-0.065 -0.016,-0.225 -0.324,-0.402 -0.781,-0.492 -0.028,-0.117 -0.084,-0.2 -0.146,-0.195 -0.051,0.004 -0.09,0.068 -0.109,0.157 -0.245,-0.031 -0.518,-0.04 -0.809,-0.02 -0.132,0.01 -0.26,0.025 -0.385,0.044 -0.046,-0.052 -0.106,-0.083 -0.174,-0.078 -0.081,0.006 -0.148,0.066 -0.184,0.149 -0.52,0.127 -0.896,0.337 -0.984,0.564 -0.162,-0.027 -0.347,-0.038 -0.543,-0.023 -0.445,0.031 -0.813,0.167 -0.961,0.335 -0.006,-0.014 -0.013,-0.024 -0.02,-0.038 0.036,-0.065 0.064,-0.134 0.058,-0.209 -0.015,-0.225 -0.233,-0.393 -0.488,-0.373 -0.128,0.008 -0.242,0.061 -0.318,0.142 -0.107,0.041 -0.2,0.121 -0.273,0.225 -0.044,-0.182 -0.177,-0.314 -0.332,-0.303 -0.178,0.012 -0.309,0.204 -0.293,0.428 0.016,0.222 0.172,0.397 0.35,0.383 0.037,-0.002 0.071,-0.017 0.104,-0.035 -0.011,0.078 -0.018,0.16 -0.011,0.244 0.002,0.027 0.008,0.054 0.011,0.081 -0.143,0.03 -0.288,0.06 -0.438,0.089 0.018,-0.047 0.031,-0.092 0.027,-0.142 -0.018,-0.257 -0.285,-0.445 -0.6,-0.424 -0.216,0.016 -0.391,0.133 -0.477,0.288 -0.016,0 -0.029,-0.002 -0.045,-0.002 -0.301,0.021 -0.535,0.134 -0.528,0.252 0.009,0.117 0.258,0.197 0.558,0.176 0.016,0 0.028,-0.004 0.045,-0.006 0.016,0.023 0.038,0.044 0.061,0.065 -0.238,0.051 -0.475,0.106 -0.713,0.161 0.005,-0.042 0.014,-0.083 0.011,-0.125 -0.034,-0.49 -0.681,-0.843 -1.447,-0.789 -0.431,0.03 -0.801,0.184 -1.042,0.402 -0.213,-0.481 -0.642,-0.794 -1.115,-0.76 -0.637,0.044 -1.108,0.702 -1.054,1.473 0.007,0.08 0.019,0.155 0.036,0.231 -0.029,0.067 -0.049,0.138 -0.045,0.214 0.014,0.191 0.148,0.343 0.318,0.394 0.01,0.013 0.02,0.028 0.031,0.039 -0.294,0.079 -0.585,0.159 -0.877,0.241 -0.036,-0.086 -0.141,-0.144 -0.261,-0.135 -0.143,0.011 -0.254,0.109 -0.247,0.221 0.002,0.019 0.01,0.035 0.018,0.05 -0.67,0.19 -1.336,0.382 -1.998,0.576 0.082,-0.063 0.129,-0.143 0.123,-0.228 -0.013,-0.18 -0.248,-0.307 -0.529,-0.288 -0.28,0.019 -0.498,0.18 -0.486,0.358 0.012,0.166 0.22,0.282 0.471,0.285 -0.145,0.041 -0.289,0.086 -0.434,0.128 0.021,-0.028 0.034,-0.059 0.033,-0.094 -0.014,-0.178 -0.415,-0.296 -0.896,-0.263 -0.484,0.034 -0.867,0.207 -0.855,0.385 0.011,0.16 0.334,0.271 0.747,0.267 -0.765,0.234 -1.519,0.47 -2.257,0.703 -0.068,-0.135 -0.161,-0.247 -0.268,-0.323 0.109,0.033 0.225,0.054 0.342,0.046 0.572,-0.04 1,-0.601 0.954,-1.252 -0.046,-0.651 -0.546,-1.146 -1.119,-1.106 -0.571,0.039 -0.998,0.599 -0.951,1.251 0.027,0.417 0.244,0.768 0.546,0.958 -0.044,-0.009 -0.088,-0.013 -0.137,-0.009 -0.342,0.024 -0.603,0.386 -0.623,0.838 -0.426,0.136 -0.845,0.273 -1.259,0.409 -0.126,-0.094 -0.3,-0.147 -0.495,-0.134 -0.346,0.023 -0.609,0.245 -0.607,0.497 -0.657,0.215 -1.297,0.427 -1.909,0.632 0,-0.002 -0.001,-0.003 -0.001,-0.003 -0.039,-0.561 -0.688,-0.974 -1.454,-0.919 -0.764,0.054 -1.352,0.55 -1.314,1.111 0.018,0.242 0.154,0.453 0.359,0.614 -3.035,1.01 -5.191,1.692 -5.834,1.65 -0.586,-0.036 -1.129,0.432 -1.975,1.049 -0.071,-0.064 -0.176,-0.104 -0.295,-0.096 -0.202,0.015 -0.357,0.158 -0.347,0.319 0.005,0.066 0.041,0.121 0.091,0.167 -0.283,0.191 -0.597,0.389 -0.949,0.584 -0.218,-0.222 -0.599,-0.356 -1.021,-0.327 -0.475,0.033 -0.867,0.259 -1.029,0.553 -0.364,-0.258 -1.149,-0.399 -2.052,-0.337 -1.224,0.085 -2.19,0.515 -2.159,0.958 0.003,0.036 0.022,0.067 0.037,0.102 -0.33,0.16 -0.545,0.435 -0.525,0.737 -0.104,0.006 -0.206,0.01 -0.312,0.012 0.235,-0.24 0.359,-0.504 0.341,-0.777 -0.061,-0.866 -1.555,-1.466 -3.337,-1.341 -0.636,0.043 -1.222,0.177 -1.712,0.366 -0.423,-1.121 -2.138,-1.871 -4.131,-1.731 -1.691,0.118 -3.098,0.846 -3.645,1.776 -0.178,-0.046 -0.354,-0.09 -0.533,-0.137 0.22,-0.192 0.391,-0.475 0.486,-0.813 0.028,0.071 0.063,0.116 0.1,0.113 0.072,-0.005 0.121,-0.204 0.104,-0.444 -0.014,-0.188 -0.063,-0.342 -0.119,-0.399 0,-0.027 0.005,-0.053 0.003,-0.082 -0.07,-0.994 -0.71,-1.759 -1.426,-1.709 -0.715,0.05 -1.239,0.896 -1.171,1.89 0.025,0.364 0.127,0.696 0.281,0.971 -0.578,-0.165 -1.168,-0.334 -1.774,-0.517 0.225,-0.105 0.359,-0.238 0.349,-0.373 -0.019,-0.269 -0.603,-0.447 -1.306,-0.398 -0.344,0.024 -0.648,0.1 -0.873,0.2 -0.313,-0.101 -0.625,-0.201 -0.941,-0.308 0.268,-0.221 0.434,-0.578 0.404,-0.969 -0.041,-0.623 -0.557,-1.097 -1.147,-1.055 -0.593,0.04 -1.036,0.581 -0.992,1.205 0.005,0.087 0.022,0.169 0.046,0.248 -0.257,-0.087 -0.514,-0.176 -0.773,-0.268 0.086,-0.1 0.139,-0.281 0.123,-0.493 -0.01,-0.155 -0.055,-0.294 -0.116,-0.389 0.044,-0.172 0.064,-0.356 0.052,-0.546 -0.058,-0.82 -0.673,-1.447 -1.375,-1.398 -0.701,0.049 -1.223,0.755 -1.166,1.575 0.01,0.135 0.039,0.261 0.075,0.38 -1.21,-0.446 -2.463,-0.926 -3.766,-1.441 0.089,-0.052 0.141,-0.117 0.137,-0.184 -0.001,-0.002 -0.002,-0.003 -0.003,-0.004 0.263,0.137 0.587,0.21 0.935,0.185 0.805,-0.057 1.421,-0.588 1.378,-1.182 -0.042,-0.598 -0.726,-1.035 -1.528,-0.979 -0.48,0.033 -0.891,0.238 -1.137,0.527 -0.256,-0.253 -0.643,-0.403 -1.076,-0.372 -0.643,0.045 -1.148,0.473 -1.214,0.992 -0.064,-0.026 -0.13,-0.053 -0.192,-0.08 0.08,-0.159 0.125,-0.365 0.109,-0.587 -0.033,-0.466 -0.311,-0.828 -0.619,-0.807 -0.233,0.017 -0.42,0.255 -0.48,0.575 -0.099,-0.664 -1.137,-1.229 -2.449,-1.299 -0.537,-0.027 -1.035,0.034 -1.454,0.157 -0.505,-0.191 -1.007,-0.379 -1.511,-0.56 0.121,-0.14 0.195,-0.296 0.203,-0.462 0.038,-0.72 -1.069,-1.36 -2.47,-1.434 -0.537,-0.028 -1.036,0.035 -1.452,0.157 -0.127,-0.474 -0.736,-0.886 -1.57,-1.088 0.135,-0.146 0.215,-0.314 0.223,-0.493 0.039,-0.718 -1.068,-1.358 -2.469,-1.432 -1.405,-0.071 -2.57,0.453 -2.609,1.17 -0.007,0.156 0.049,0.308 0.143,0.454 -0.633,-0.169 -1.262,-0.331 -1.887,-0.487 -0.162,-0.145 -0.357,-0.23 -0.562,-0.216 -0.063,0.003 -0.123,0.018 -0.182,0.039 -0.498,-0.12 -0.996,-0.238 -1.491,-0.35 0.199,-0.176 0.328,-0.372 0.34,-0.594 0.037,-0.717 -1.069,-1.358 -2.473,-1.431 -0.611,-0.032 -1.173,0.055 -1.622,0.217 -0.118,-0.064 -0.247,-0.098 -0.38,-0.088 -0.387,0.027 -0.695,0.387 -0.799,0.873 -0.611,-0.113 -1.223,-0.221 -1.827,-0.326 0.192,-0.252 0.304,-0.62 0.275,-1.027 -0.05,-0.719 -0.505,-1.272 -1.015,-1.236 -0.51,0.035 -0.882,0.646 -0.83,1.365 0.018,0.251 0.087,0.481 0.188,0.674 -0.567,-0.09 -1.133,-0.178 -1.694,-0.258 -0.159,-0.507 -0.525,-0.856 -0.932,-0.828 -0.312,0.022 -0.568,0.258 -0.712,0.603 -0.91,-0.12 -1.809,-0.23 -2.698,-0.326 -0.069,-0.017 -0.14,-0.028 -0.214,-0.023 h -0.001 c -0.114,-0.014 -0.229,-0.026 -0.344,-0.039 0.189,-0.147 0.306,-0.503 0.278,-0.914 -0.038,-0.526 -0.297,-0.936 -0.583,-0.916 -0.225,0.017 -0.396,0.295 -0.441,0.672 -0.246,-0.092 -0.556,-0.136 -0.892,-0.113 -0.754,0.053 -1.342,0.418 -1.315,0.817 0.005,0.065 0.031,0.127 0.067,0.188 -0.095,-0.01 -0.189,-0.018 -0.285,-0.025 0.124,-0.251 0.189,-0.556 0.167,-0.884 -0.056,-0.795 -0.595,-1.404 -1.206,-1.361 -0.186,0.013 -0.354,0.089 -0.499,0.204 -0.179,-0.095 -0.386,-0.142 -0.605,-0.128 -0.615,0.044 -1.077,0.565 -1.035,1.167 0.024,0.342 0.208,0.632 0.474,0.815 -0.616,-0.038 -1.226,-0.069 -1.827,-0.096 0.392,-0.124 0.649,-0.311 0.636,-0.503 -0.021,-0.297 -0.658,-0.492 -1.425,-0.439 -0.767,0.054 -1.373,0.337 -1.35,0.633 0.005,0.091 0.074,0.17 0.183,0.237 -1.072,-0.031 -2.118,-0.05 -3.144,-0.054 -0.001,-0.022 0.004,-0.041 0.003,-0.063 -0.066,-0.945 -0.864,-1.661 -1.779,-1.596 -0.871,0.06 -1.527,0.802 -1.537,1.683 -0.448,0.011 -0.891,0.022 -1.327,0.034 -0.043,-0.025 -0.247,-0.032 -0.565,-0.027 0.328,-0.176 0.542,-0.562 0.51,-0.994 -0.039,-0.57 -0.484,-1.003 -0.994,-0.967 -0.509,0.035 -0.891,0.526 -0.851,1.097 0.028,0.411 0.272,0.748 0.595,0.892 -0.169,0.009 -0.345,0.019 -0.531,0.031 -0.197,0.015 -0.384,0.029 -0.562,0.045 -0.04,-0.325 -0.12,-0.637 -0.236,-0.931 0.415,-0.076 0.716,-0.307 0.698,-0.556 -0.021,-0.282 -0.45,-0.485 -0.959,-0.45 -0.107,0.009 -0.208,0.028 -0.302,0.054 -0.743,-0.918 -1.906,-1.473 -3.173,-1.385 -1.278,0.09 -2.36,0.81 -2.966,1.836 -0.18,-0.021 -0.378,-0.027 -0.59,-0.013 -0.752,0.053 -1.343,0.339 -1.322,0.637 0.021,0.3 0.646,0.501 1.397,0.448 0.031,-0.002 0.06,-0.009 0.092,-0.012 -0.042,0.185 -0.066,0.374 -0.08,0.566 -0.023,0.055 -0.036,0.111 -0.032,0.17 0.003,0.023 0.013,0.047 0.021,0.072 0,0.061 0.001,0.121 0.004,0.185 -6.396,0.714 -10.16,1.681 -10.16,1.681 l 4.641,66.42 155.141,-10.84 z m -74.813,6.745 c 0.009,0.019 0.016,0.034 0.023,0.051 -0.017,-0.007 -0.037,-0.013 -0.055,-0.018 0.012,-0.011 0.02,-0.022 0.032,-0.033 z m -44.279,-12.481 c 0.028,0.037 0.057,0.072 0.086,0.104 -0.072,-0.011 -0.145,-0.018 -0.217,-0.023 0.047,-0.025 0.09,-0.051 0.131,-0.081 z m 34.766,8.826 c 0.017,-0.034 0.018,-0.069 0.025,-0.108 0.002,0.011 0.002,0.018 0.002,0.026 0.003,0.034 0.009,0.066 0.011,0.099 0,0 -0.004,-0.002 -0.003,-0.003 -0.011,-0.004 -0.023,-0.009 -0.035,-0.014 z m 78.405,-4.467 c 0.005,0.046 0.016,0.086 0.03,0.118 -0.048,0 -0.097,0 -0.146,-0.001 0.047,-0.034 0.083,-0.075 0.116,-0.117 z m 1.762,0.042 c 0.033,0.067 0.072,0.121 0.119,0.162 -0.096,-0.01 -0.192,-0.018 -0.289,-0.023 0.063,-0.042 0.117,-0.088 0.17,-0.139 z"
   id="path49" />
							<path
   style="fill:#799987"
   d="m 104.182,606.486 c 1.02,-0.071 1.813,-0.613 1.771,-1.212 -0.042,-0.601 -0.902,-1.028 -1.921,-0.956 -1.019,0.07 -1.811,0.614 -1.768,1.214 0.041,0.597 0.899,1.026 1.918,0.954 z"
   id="path50" />
							<path
   style="fill:#799987"
   d="m 100.578,607.094 c 0.134,-0.008 0.239,-0.097 0.232,-0.195 -0.006,-0.098 -0.123,-0.168 -0.257,-0.159 -0.134,0.01 -0.237,0.097 -0.231,0.192 0.007,0.099 0.121,0.172 0.256,0.162 z"
   id="path51" />
							<path
   style="fill:#799987"
   d="m 123.57,604.043 c 0.559,-0.039 1.005,-0.192 0.995,-0.344 -0.01,-0.147 -0.475,-0.238 -1.034,-0.199 -0.56,0.039 -1.006,0.193 -0.997,0.342 0.012,0.149 0.476,0.24 1.036,0.201 z"
   id="path52" />
							<path
   style="fill:#799987"
   d="m 174.456,616.938 c 0.006,0.078 0.276,0.12 0.604,0.098 0.326,-0.023 0.59,-0.103 0.584,-0.18 -0.006,-0.077 -0.276,-0.119 -0.605,-0.096 -0.327,0.021 -0.589,0.101 -0.583,0.178 z"
   id="path53" />
							<path
   style="fill:#799987"
   d="m 182.895,619.06 c 0.471,-0.032 0.845,-0.185 0.834,-0.337 -0.012,-0.153 -0.402,-0.249 -0.874,-0.216 -0.472,0.032 -0.845,0.183 -0.833,0.334 0.01,0.154 0.4,0.253 0.873,0.219 z"
   id="path54" />
							<path
   style="fill:#799987"
   d="m 205.589,621.175 c 0.407,-0.028 0.716,-0.359 0.688,-0.736 -0.027,-0.379 -0.377,-0.661 -0.784,-0.634 -0.409,0.029 -0.72,0.359 -0.692,0.737 0.026,0.376 0.379,0.661 0.788,0.633 z"
   id="path55" />
							<path
   style="fill:#799987"
   d="m 211.394,619.393 c 0.408,-0.028 0.725,-0.228 0.712,-0.445 -0.016,-0.217 -0.359,-0.37 -0.766,-0.342 -0.408,0.028 -0.727,0.229 -0.711,0.445 0.015,0.217 0.358,0.37 0.765,0.342 z"
   id="path56" />
							<path
   style="fill:#799987"
   d="m 214.751,618.367 c 0.231,-0.016 0.382,-0.5 0.342,-1.083 -0.041,-0.583 -0.259,-1.045 -0.489,-1.028 -0.227,0.016 -0.377,0.503 -0.337,1.086 0.04,0.583 0.258,1.041 0.484,1.025 z"
   id="path57" />
							<path
   style="fill:#799987"
   d="m 220.807,616.133 c 0.509,-0.037 0.894,-0.481 0.857,-0.997 -0.036,-0.516 -0.479,-0.905 -0.987,-0.87 -0.511,0.035 -0.894,0.484 -0.857,0.999 0.034,0.515 0.477,0.903 0.987,0.868 z"
   id="path58" />
							<path
   style="fill:#799987"
   d="m 222.77,615.059 c 0.484,-0.035 0.859,-0.327 0.836,-0.651 -0.023,-0.326 -0.434,-0.563 -0.916,-0.528 -0.484,0.033 -0.859,0.325 -0.836,0.651 0.021,0.323 0.434,0.561 0.916,0.528 z"
   id="path59" />
							<path
   style="fill:#799987"
   d="m 229.805,613.586 c 0.161,-0.013 0.277,-0.218 0.261,-0.465 -0.017,-0.243 -0.161,-0.435 -0.323,-0.422 -0.162,0.011 -0.278,0.219 -0.263,0.462 0.018,0.247 0.163,0.436 0.325,0.425 z"
   id="path60" />
						</g>
						<polygon
   style="fill:#d1d0b8"
   points="132.426,485.404 91.036,521.547 144.6,503.789 "
   id="polygon60" />
						<polygon
   style="fill:#d1d0b8"
   points="200.162,480.672 246.176,510.707 190.664,500.571 "
   id="polygon61" />
						<path
   style="fill:#595651"
   d="m 323.82,419.75 c -10.39,-11.06 -24.28,-16.38 -41.27,-15.77 -0.47,0.02 -0.93,0.039 -1.38,0.069 1.43,-29.37 -18.23,-48.93 -40.44,-55.79 -26.63,-8.23 -62.31,0.15 -77.72,37.98 -16.52,40.569 2.89,101.399 3.09,102.01 l 1.9,-0.62 c -0.19,-0.6 -19.38,-60.75 -3.14,-100.64 14.93,-36.66 49.49,-44.79 75.28,-36.82 21.48,6.63 40.5,25.59 39.01,54.05 -17.31,1.851 -19.23,12.7 -19.39,16.15 -0.3,6.17 3.07,11.66 7.51,12.24 2.53,0.33 8.8,-0.7 12.41,-17.4 0.67,-3.15 1.12,-6.2 1.36,-9.15 0.51,-0.029 1.04,-0.06 1.58,-0.079 16.39,-0.57 29.76,4.52 39.74,15.14 12.5,13.32 19.9,35.31 21.99,65.35 0.9,12.96 0.68,25.511 0.12,36.07 -0.04,0.62 -0.013,2.193 -0.053,2.793 h 2.083 c 0.04,-0.61 -0.04,-2.323 0,-2.943 1.68,-30.94 0.42,-78.03 -22.68,-102.64 z m -46.1,-4.97 c -2.25,10.46 -6.06,16.39 -10.19,15.85 -3.32,-0.43 -6.01,-5.18 -5.78,-10.17 0.15,-3.01 1.86,-12.41 17.26,-14.21 -0.23,2.76 -0.66,5.6 -1.29,8.53 z"
   id="path61" />
					</g>
				</g>
			</g>
		</g>
	</g>
</g>
</svg>
