<?xml version="1.0" encoding="UTF-8" standalone="no"?>
<svg
   viewBox="0 0 24 24"
   version="1.1"
   id="svg1"
   sodipodi:docname="mint.svg"
   inkscape:version="1.3.2 (091e20ef0f, 2023-11-25, custom)"
   xmlns:inkscape="http://www.inkscape.org/namespaces/inkscape"
   xmlns:sodipodi="http://sodipodi.sourceforge.net/DTD/sodipodi-0.dtd"
   xmlns="http://www.w3.org/2000/svg"
   xmlns:svg="http://www.w3.org/2000/svg">
  <defs
     id="defs1" />
  <sodipodi:namedview
     id="namedview1"
     pagecolor="#505050"
     bordercolor="#ffffff"
     borderopacity="1"
     inkscape:showpageshadow="0"
     inkscape:pageopacity="0"
     inkscape:pagecheckerboard="1"
     inkscape:deskcolor="#505050"
     inkscape:zoom="33.587572"
     inkscape:cx="9.8101762"
     inkscape:cy="11.090412"
     inkscape:window-width="2560"
     inkscape:window-height="1378"
     inkscape:window-x="0"
     inkscape:window-y="26"
     inkscape:window-maximized="1"
     inkscape:current-layer="svg1" />
  <title
     id="title1">linux-mint</title>
  <path
     d="M2,3.23V6.8H3.5C4.59,6.8 4.78,7.53 4.78,8.55V14.86C4.78,18.12 7.65,20.77 11.18,20.77H19.9C21,20.77 22,20.07 22,19V9.2C22,5.93 19.13,3.28 15.6,3.28H11.93V3.27L2,3.23V3.23M6.62,5.46H8.37V14.45C8.37,15.65 9.19,16.59 10.16,16.59L16.13,16.61C17.38,16.61 18.35,15.75 18.35,14.73L18.34,9.96C18.34,9.65 18.24,9.41 18,9.19C17.79,8.96 17.56,8.86 17.25,8.86C16.94,8.86 16.71,8.96 16.5,9.19C16.27,9.41 16.16,9.65 16.16,9.96V14.05H14.31V9.96C14.31,9.65 14.21,9.41 14,9.19C13.77,8.96 13.54,8.86 13.22,8.86C12.92,8.86 12.68,8.96 12.46,9.19C12.24,9.41 12.14,9.65 12.14,9.96V14.05H10.29V9.96C10.29,9.15 10.58,8.44 11.15,7.86C11.72,7.29 12.43,7 13.22,7C14,7 14.68,7.28 15.24,7.82C15.79,7.28 16.47,7 17.25,7C18.05,7 18.76,7.29 19.32,7.86C19.89,8.44 20.19,9.15 20.19,9.96L20.2,15.06C20.11,15.91 19.75,16.67 19.13,17.31V17.31C18.4,18.04 17.5,18.42 16.5,18.42H9.83C9,18.34 8.29,17.95 7.69,17.36C7,16.65 6.62,15.79 6.62,14.79V5.46H6.62Z"
     id="path1"
     style="fill:#ffffff;fill-opacity:1;opacity:0.05" />
</svg>
